<svg width="131" height="40" viewBox="0 0 131 40" fill="none" xmlns="http://www.w3.org/2000/svg">
<g clip-path="url(#clip0_367_8228)">
<path d="M73.7168 29.1864H78.5911L81.5691 14.6324H85.2245L85.7635 11.9248H82.1782L82.3141 11.3157C82.5169 10.1676 82.9232 8.87858 84.7506 8.87858C85.8349 8.87858 86.8497 8.94618 87.8645 9.42009L88.4066 6.57729C87.2757 6.17825 86.0857 5.97213 84.8864 5.96753C80.96 5.96753 78.253 8.26945 77.237 11.9248H75.5448L75.0033 14.6324H76.6955L73.7168 29.1864Z" fill="#EA1D2C"/>
<path d="M89.1511 25.6669C94.905 25.6669 98.899 20.4539 98.899 16.1894C98.899 13.0079 95.988 11.6538 93.1452 11.6538C86.8479 11.6538 83.3973 17.2756 83.3973 21.1313C83.3973 24.3128 86.3759 25.6669 89.1511 25.6669ZM104.587 25.6669C110.34 25.6669 114.334 20.4539 114.334 16.1894C114.334 13.0079 111.356 11.6538 108.512 11.6538C102.217 11.6538 98.7651 17.2724 98.7651 21.1313C98.7651 24.3128 101.811 25.6669 104.587 25.6669ZM122.254 25.3958H127.06L130.986 6.24121H126.112L124.961 11.9274L122.93 11.7246C118.191 11.7246 113.859 17.8165 113.859 22.1493C113.859 23.909 115.007 25.6695 116.973 25.6695C119.748 25.6695 121.712 24.3153 122.522 22.9612H122.793L122.254 25.3958ZM107.225 35.4824C103.442 38.6169 98.5832 40.1474 93.6867 39.747C87.2555 39.3407 82.6523 34.3988 81.8403 29.1864H82.1108C83.6001 32.4394 87.1879 35.4824 91.5883 35.9557C96.0531 36.4972 101.404 34.467 104.314 31.6912L101.065 29.1864H110.881L108.712 39.6117L107.29 35.55L107.225 35.4824Z" fill="#EA1D2C"/>
</g>
<path d="M8.2684 26.0723C8.24393 26.1982 8.18631 26.3061 8.09554 26.396C8.00827 26.468 7.89135 26.5039 7.74478 26.5039H3.78728C3.65902 26.5039 3.55608 26.468 3.47846 26.396C3.42265 26.3061 3.40698 26.1982 3.43146 26.0723L7.04977 7.45768C7.07774 7.31379 7.13536 7.20588 7.22263 7.13394C7.32822 7.062 7.44514 7.02603 7.5734 7.02603H20.8475C20.9941 7.02603 21.097 7.062 21.1563 7.13394C21.2156 7.20588 21.2313 7.31379 21.2033 7.45768L20.5006 11.0727C20.4762 11.1986 20.4186 11.3065 20.3278 11.3964C20.2405 11.4684 20.1236 11.5043 19.977 11.5043H11.1001L10.3398 15.4161H17.8975C18.0441 15.4161 18.147 15.4521 18.2063 15.524C18.2656 15.5959 18.2813 15.7039 18.2533 15.8477L17.5506 19.4628C17.5261 19.5886 17.4685 19.6966 17.3778 19.7865C17.2905 19.8584 17.1736 19.8944 17.027 19.8944H9.46926L8.2684 26.0723ZM27.2063 26.9086C25.3375 26.9086 23.8151 26.5399 22.6393 25.8025C21.467 25.0471 20.7187 23.995 20.3946 22.6461C20.379 22.5382 20.3746 22.4663 20.3816 22.4303C20.4096 22.2864 20.5239 22.1695 20.7246 22.0796L24.277 20.4879L24.5073 20.434C24.6539 20.434 24.7682 20.5059 24.8501 20.6498C25.1718 21.3512 25.5852 21.8638 26.0902 22.1875C26.6171 22.4932 27.2653 22.6461 28.0348 22.6461C28.8593 22.6461 29.5194 22.5022 30.015 22.2145C30.5325 21.9087 30.8384 21.5131 30.9328 21.0275C31.0377 20.4879 30.8852 20.0473 30.4752 19.7056C30.0653 19.3638 29.3718 19.0671 28.3947 18.8153C27.142 18.4736 26.072 18.0869 25.1849 17.6552C24.3012 17.2056 23.61 16.5671 23.1112 15.7398C22.6159 14.8945 22.4959 13.8154 22.7511 12.5025C22.9574 11.4414 23.4319 10.4612 24.1747 9.56194C24.9358 8.66268 25.9167 7.95227 27.1173 7.4307C28.3398 6.89114 29.7023 6.62137 31.2047 6.62137C33.0369 6.62137 34.4894 6.97208 35.5623 7.6735C36.6535 8.37492 37.3677 9.31914 37.705 10.5062C37.7206 10.6141 37.7267 10.677 37.7232 10.695C37.6988 10.8209 37.5827 10.9468 37.375 11.0727L33.8331 12.6104C33.731 12.6644 33.6433 12.6913 33.57 12.6913C33.4418 12.6913 33.3459 12.6194 33.2822 12.4755C32.984 11.936 32.5937 11.5403 32.1113 11.2885C31.6508 11.0187 31.0724 10.8838 30.3761 10.8838C29.6616 10.8838 29.0857 11.0187 28.6485 11.2885C28.2331 11.5403 27.9852 11.873 27.9048 12.2867C27.8174 12.7363 27.9307 13.096 28.2447 13.3658C28.5622 13.6176 29.1563 13.8604 30.0269 14.0942C31.4158 14.4899 32.5834 14.9395 33.5299 15.4431C34.4798 15.9287 35.2081 16.6121 35.7147 17.4934C36.2396 18.3747 36.3727 19.4807 36.114 20.8116C35.8973 21.9267 35.3957 22.9519 34.6093 23.8871C33.8264 24.8043 32.7944 25.5417 31.5135 26.0993C30.2543 26.6388 28.8186 26.9086 27.2063 26.9086ZM46.3436 26.1532C46.2249 26.387 46.0373 26.5039 45.7807 26.5039H41.1087C40.8522 26.5039 40.7209 26.378 40.7149 26.1262L40.1559 7.51163L40.1821 7.37674C40.2275 7.14294 40.3785 7.02603 40.635 7.02603H44.8399C45.1147 7.02603 45.2551 7.15193 45.2611 7.40372L45.2974 20.0832L50.4049 9.64287C50.5236 9.40906 50.7112 9.29216 50.9677 9.29216H54.5405C54.797 9.29216 54.9391 9.40906 54.967 9.64287L56.0706 20.0832L61.1461 7.40372C61.25 7.15193 61.4394 7.02603 61.7142 7.02603H65.5068C65.6534 7.02603 65.7546 7.071 65.8104 7.16092C65.8662 7.25085 65.8618 7.36775 65.7972 7.51163L58.0015 26.1262C57.8976 26.378 57.7174 26.5039 57.4609 26.5039H52.7888C52.5323 26.5039 52.3901 26.387 52.3623 26.1532L51.2912 16.2524L46.3436 26.1532Z" fill="#EA1D2C"/>
<defs>
<clipPath id="clip0_367_8228">
<rect width="57.6283" height="34.0325" fill="white" transform="translate(73.3003 5.96753)"/>
</clipPath>
</defs>
</svg>
